<svg viewBox="0 0 158 38" fill="none" xmlns="http://www.w3.org/2000/svg">
        <path d="M155.979 12.2972C154.815 11.1332 153.228 10.4277 151.464 10.4277H143.775C143.281 10.4277 142.857 10.8157 142.857 11.3448V13.8492C142.857 14.3431 143.245 14.7664 143.775 14.7664H151.464C152.028 14.7664 152.558 14.978 152.91 15.366C153.298 15.754 153.51 16.2478 153.51 16.8122V20.9745C153.51 21.5388 153.298 22.0679 152.91 22.4207C152.522 22.8087 152.028 23.0203 151.464 23.0203H143.775C143.281 23.0203 142.857 23.4083 142.857 23.9374V26.4418C142.857 26.9357 143.245 27.3589 143.775 27.3589H147.619H151.464C153.228 27.3589 154.815 26.6535 155.979 25.4895C157.143 24.3254 157.849 22.7381 157.849 20.9745V16.8122C157.849 15.0838 157.143 13.4612 155.979 12.2972Z" fill="#B2C2D6"></path>
        <path d="M139.683 14.7662H137.178C136.685 14.7662 136.261 15.1542 136.261 15.6833V21.0096C136.261 21.574 136.05 22.1031 135.662 22.4558C135.274 22.8438 134.78 23.0555 134.215 23.0555H127.267V16.8121V16.7416C127.231 15.0132 126.526 13.4611 125.397 12.3324C124.233 11.1684 122.646 10.4629 120.882 10.4629H114.709C114.427 10.4629 114.145 10.604 114.004 10.8156L111.782 13.7433C111.464 14.1666 111.746 14.7662 112.311 14.7662H120.882C121.447 14.7662 121.976 14.9779 122.328 15.3659C122.681 15.7539 122.928 16.2477 122.928 16.7768V23.0202H106.173C105.679 23.0202 105.256 23.4082 105.256 23.9373V26.4417C105.256 26.9356 105.644 27.3588 106.173 27.3588H108.995C108.96 27.8527 108.748 28.2759 108.395 28.6287C108.007 29.0167 107.514 29.2283 106.949 29.2283H99.965C99.4007 29.2283 98.8716 29.0167 98.5188 28.6287C98.1308 28.2407 97.9192 27.7468 97.9192 27.1825V19.8809C97.9192 19.3871 97.5312 18.9638 97.0021 18.9638H94.4977C94.0038 18.9638 93.5806 19.3518 93.5806 19.8809V23.3377V27.1825C93.5806 28.9461 94.286 30.5334 95.4501 31.6975C96.6141 32.8615 98.2014 33.5669 99.965 33.5669H106.949C108.713 33.5669 110.3 32.8615 111.464 31.6975C112.558 30.604 113.263 29.052 113.334 27.3588H123.88H125.468H126.42C126.914 27.3588 127.337 26.9708 127.337 26.4417V25.6304L128.36 27.0061C128.536 27.2177 128.783 27.3588 129.066 27.3588H129.806H134.251C136.014 27.3588 137.602 26.6534 138.766 25.4893C139.93 24.3253 140.635 22.738 140.635 20.9744V15.6481C140.6 15.1542 140.177 14.7662 139.683 14.7662Z" fill="#B2C2D6"></path>
        <path d="M62.2225 8.73547C62.2225 8.24164 61.8345 7.81836 61.3054 7.81836H58.801C58.3072 7.81836 57.8839 8.20637 57.8839 8.73547V21.0106C57.8839 21.575 57.6723 22.1041 57.2843 22.4568C56.8963 22.8448 56.4024 23.0565 55.8381 23.0565H47.443C46.9492 23.0565 46.5259 23.4445 46.5259 23.9736V26.478C46.5259 26.9718 46.9139 27.3951 47.443 27.3951H55.8381C57.6017 27.3951 59.189 26.6896 60.3531 25.5256C61.5171 24.3616 62.2225 22.7743 62.2225 21.0106V17.1305V8.73547Z" fill="#B2C2D6"></path>
        <path d="M119.33 29.6875H116.826C116.332 29.6875 115.909 30.0755 115.909 30.6046V32.6857C115.909 33.1796 116.297 33.6028 116.826 33.6028H119.33C119.824 33.6028 120.247 33.2148 120.247 32.6857V30.6046C120.212 30.0755 119.824 29.6875 119.33 29.6875Z" fill="#B2C2D6"></path>
        <path d="M137.425 29.6875H131.111C130.618 29.6875 130.194 30.0755 130.194 30.6046V32.6857C130.194 33.1796 130.582 33.6028 131.111 33.6028H137.425C137.919 33.6028 138.342 33.2148 138.342 32.6857V30.6046C138.342 30.0755 137.919 29.6875 137.425 29.6875Z" fill="#B2C2D6"></path>
        <path d="M49.7709 19.7054C49.8767 20.0934 50.2294 20.3756 50.6527 20.3756H53.1219C53.7215 20.3756 54.1448 19.8112 54.0037 19.2468L51.076 8.52371C50.9702 8.1357 50.6174 7.85352 50.1942 7.85352H47.725C47.1254 7.85352 46.7021 8.41789 46.8432 8.98226L49.7709 19.7054Z" fill="#B2C2D6"></path>
        <path d="M82.1518 10.4279H80.5997L84.4093 5.45433C84.7267 5.06633 84.4445 4.50195 83.9154 4.50195H80.1412C79.859 4.50195 79.6121 4.64305 79.4357 4.85469L72.9807 13.3556C72.5221 13.9552 72.9454 14.8018 73.6862 14.8018H75.8731H80.4586H82.187C84.5504 14.8018 86.4904 16.7065 86.5257 19.0699V23.0557H71.3581C70.7937 23.0557 70.2646 22.8441 69.9119 22.4561C69.5239 22.0681 69.3123 21.5743 69.3123 21.0099V8.73476C69.3123 8.24093 68.9242 7.81765 68.3951 7.81765H65.8907C65.3969 7.81765 64.9736 8.20566 64.9736 8.73476V17.1651V21.0099C64.9736 22.7736 65.6791 24.3609 66.8431 25.5249C68.0071 26.6889 69.5944 27.3944 71.3581 27.3944H75.5909H76.896H87.4428H88.3246H89.9825C90.441 27.3944 90.829 27.0416 90.8643 26.5831V23.479V19.1051C90.829 14.308 86.9489 10.4279 82.1518 10.4279Z" fill="#B2C2D6"></path>
        <path d="M0.811523 2.35007C0.811523 1.29187 1.65808 0.445312 2.71628 0.445312H24.1978C31.7815 0.445312 37.9191 6.58288 37.9191 14.1667V23.8668C37.9191 31.4506 31.7815 37.5882 24.1978 37.5882H2.71628C1.65808 37.5882 0.811523 36.7416 0.811523 35.6834V2.35007Z" fill="#B2C2D6"></path>
        <path d="M19.3655 23.7266C15.3091 23.7266 11.4643 21.8924 8.88931 18.7883C8.50131 18.3298 8.60713 17.6243 9.10095 17.2716L10.8293 16.0723C11.2526 15.7548 11.8523 15.8606 12.205 16.2487C14.004 18.3298 16.6142 19.5291 19.3655 19.5291C22.1168 19.5291 24.7623 18.3298 26.526 16.2487C26.8787 15.8254 27.4784 15.7548 27.9017 16.0723L29.63 17.2716C30.1239 17.6243 30.2297 18.3298 29.8417 18.7883C27.2667 21.8924 23.4219 23.7266 19.3655 23.7266Z" fill="white"></path>
</svg>