<svg width="250" height="124" viewBox="0 0 250 124" fill="none" xmlns="http://www.w3.org/2000/svg">
    <g clip-path="url(#clip0_9192_18268)">
        <path d="M211.407 9.5071H209.444L210.694 0H213.913C215.618 0 217.079 0.611686 216.769 2.94768L216.734 3.22729C216.512 4.7885 215.776 5.52251 214.882 5.84873L215.869 9.5071H213.79L212.949 6.0701H211.857L211.407 9.5071ZM213.317 4.38654C213.49 4.40345 213.665 4.38443 213.831 4.33065C213.996 4.27687 214.149 4.1895 214.279 4.07405C214.409 3.95859 214.513 3.81754 214.586 3.65979C214.659 3.50203 214.698 3.33098 214.701 3.15739V2.9768C214.847 1.90492 214.164 1.68356 213.626 1.68356H212.4L212.032 4.36326L213.317 4.38654Z" fill="#253343"/>
        <path d="M219.374 9.5071H217.388L218.638 0H220.624L219.374 9.5071Z" fill="#253343"/>
        <path d="M228.65 4.9458C228.224 8.34785 226.799 9.5071 224.041 9.5071H221.121L222.371 0H225.163C227.908 0 229.147 1.20587 228.726 4.55549L228.65 4.9458ZM224.047 7.81773C225.706 7.81773 226.384 6.99052 226.612 4.96327L226.658 4.57296C226.892 2.68552 226.559 1.72434 225.017 1.72434H224.106L223.294 7.81773H224.047Z" fill="#253343"/>
        <path d="M236.594 0L236.372 1.70686H232.511L232.231 3.804H235.479L235.257 5.51086H232.009L231.705 7.80025H235.566L235.344 9.5071H229.503L230.753 0H236.594Z" fill="#253343"/>
        <path d="M210.612 30.7882H208.626L209.625 22.9647H207.417L207.639 21.2578H214.065L213.848 22.9647H211.629L210.612 30.7882Z" fill="#253343"/>
        <path d="M221.98 21.2793L220.73 30.7864H218.744L219.275 26.7902H216.489L215.963 30.7864H213.977L215.227 21.2793H217.213L216.711 25.0833H219.491L219.994 21.2793H221.98Z" fill="#253343"/>
        <path d="M229.48 21.2793L229.264 22.9862H225.403L225.122 25.0833H228.37L228.148 26.7902H224.9L224.591 29.0796H228.452L228.23 30.7864H222.388L223.638 21.2793H229.48Z" fill="#253343"/>
        <path d="M206.296 47.5113C206.062 49.422 206.296 50.5172 207.406 50.5172H207.528C208.743 50.5172 208.977 49.8939 209.123 48.822H211.121V49.0084C210.799 51.3386 209.538 52.224 207.441 52.224C205.104 52.224 203.877 50.8201 204.298 47.5113L204.345 47.121C204.759 43.818 206.009 42.4082 208.375 42.4082C210.858 42.4082 211.827 43.5267 211.547 45.7811L211.5 46.1714H209.503C209.672 44.8083 209.438 44.1092 208.387 44.1092H208.264C207.172 44.1092 206.599 45.2044 206.366 47.1093L206.296 47.5113Z" fill="#253343"/>
        <path d="M211.851 52.0911L213.101 42.5957H215.087L214.059 50.3435H217.564L217.342 52.0445L211.851 52.0911Z" fill="#253343"/>
        <path d="M225.753 47.121L225.706 47.5113C225.291 50.8085 224.1 52.224 221.617 52.224C219.135 52.224 217.99 50.8201 218.405 47.5113L218.457 47.121C218.872 43.818 220.058 42.4082 222.546 42.4082C225.034 42.4082 226.173 43.8063 225.753 47.121ZM221.711 50.5172C222.926 50.5172 223.428 49.422 223.673 47.5113L223.72 47.121C223.965 45.2044 223.773 44.1092 222.552 44.1092H222.429C221.214 44.1092 220.712 45.2044 220.472 47.121L220.42 47.5113C220.174 49.422 220.373 50.5172 221.588 50.5172H221.711Z" fill="#253343"/>
        <path d="M226.6 49.0559L227.459 42.5664H229.439L228.598 48.9744C228.463 49.9705 228.691 50.4948 229.819 50.4948C230.946 50.4948 231.366 49.9938 231.501 48.9744L232.342 42.5664H234.328L233.469 49.0559C233.201 51.1123 232.365 52.225 229.772 52.225C227.178 52.225 226.331 51.124 226.6 49.0559Z" fill="#253343"/>
        <path d="M241.945 47.5122C241.519 50.9084 240.093 52.0619 237.342 52.0619H234.386L235.636 42.5664H238.429C241.174 42.5664 242.412 43.7723 241.992 47.1219L241.945 47.5122ZM237.365 50.3434C239.018 50.3434 239.667 49.5161 239.924 47.4947L239.971 47.1044C240.204 45.217 239.877 44.2558 238.329 44.2558H237.4L236.594 50.3434H237.365Z" fill="#253343"/>
        <path d="M243.183 45.3384L243.218 45.0588C243.452 43.3111 244.661 42.4082 246.624 42.4082C249.171 42.4082 250.187 43.5383 249.907 45.6471L249.871 45.9268H247.885C248.043 44.7093 247.739 44.1092 246.635 44.1092H246.513C246.221 44.0776 245.928 44.1565 245.692 44.3303C245.457 44.504 245.295 44.7599 245.239 45.0471V45.2335C245.163 45.8161 245.444 46.2297 246.816 46.486C248.791 46.853 249.737 47.7909 249.527 49.288L249.486 49.5677C249.258 51.3153 247.996 52.224 245.981 52.224C243.569 52.224 242.365 51.1405 242.634 49.1016L242.675 48.822H244.655C244.486 50.0395 245.047 50.5172 245.97 50.5172H246.092C246.91 50.5172 247.377 50.2026 247.459 49.5793L247.488 49.3987C247.57 48.7754 247.22 48.3385 245.859 48.0822C243.779 47.7035 242.996 46.719 243.183 45.3384Z" fill="#253343"/>
        <path d="M10.7246 123.16H0.0175781L6.75255 71.8965H24.142C33.3361 71.8965 41.2043 75.182 39.5512 87.8057L39.3526 89.3145C38.1844 97.7322 34.1948 101.676 29.3641 103.447L34.8548 123.172H23.6221L19.0601 104.764H13.1779L10.7246 123.16ZM21.0403 95.5477C23.9609 95.5477 27.8512 94.6273 28.5813 89.0407L28.7098 88.0562C29.5042 82.2716 25.7892 81.0657 22.8686 81.0657H16.2796L14.2995 95.5244L21.0403 95.5477Z" fill="#253343"/>
        <path d="M60.1124 123.162H49.3937L54.9429 81.0909H43.0559L44.2242 71.8867H78.8044L77.6362 81.0909H65.6674L60.1124 123.162Z" fill="#253343"/>
        <path d="M88.7403 98.5602C87.4844 108.883 88.8046 114.801 94.7568 114.801H95.4169C101.965 114.801 103.221 111.446 104.015 105.661H114.816L114.681 106.646C112.964 119.205 106.153 124.006 94.8211 124.006C82.0579 124.006 75.58 116.433 77.823 98.5602L78.0917 96.4572C80.3406 78.6431 87.0814 71.0176 99.8446 71.0176C113.279 71.0176 118.49 77.0644 116.965 89.2279L116.702 91.3308H105.931C106.86 83.9675 105.604 80.2218 99.9146 80.2218H99.2546C93.3724 80.2218 90.259 86.1404 89.0032 96.3931L88.7403 98.5602Z" fill="#253343"/>
        <path d="M161.727 43.033L160.559 52.2372H126.679L127.538 45.5962L150.22 23.8382C153.193 21.0129 154.309 19.4342 154.647 16.737L154.717 16.2127C155.302 11.5524 153.129 9.3096 149.688 9.3096H149.028C144.998 9.3096 142.603 11.5407 141.756 18.0477H131.171L131.37 16.5972C132.889 5.55804 138.508 0.0996094 149.478 0.0996094C161.978 0.0996094 166.418 7.52703 165.413 14.8263L165.214 16.271C164.49 21.7294 162.504 24.2227 157.813 28.6966L142.801 43.0912L147.474 43.0272L161.727 43.033Z" fill="#253343"/>
        <path d="M200.355 43.033L199.187 52.2372H165.313L166.172 45.5962L188.848 23.8382C191.827 21.0129 192.937 19.4342 193.281 16.737L193.346 16.2127C193.93 11.5524 191.757 9.3096 188.322 9.3096H187.662C183.626 9.3096 181.237 11.5407 180.384 18.0477H169.805L170.004 16.5972C171.529 5.55804 177.148 0.0996094 188.112 0.0996094C200.606 0.0996094 205.052 7.52703 204.047 14.8263L203.848 16.271C203.118 21.7294 201.138 24.2227 196.442 28.6966L181.429 43.0912L186.102 43.0272L200.355 43.033Z" fill="#253343"/>
        <path d="M234.673 15.7632H208.393L208.492 15.0176H234.778L234.673 15.7632Z" fill="#253343"/>
        <path d="M249.901 37.0445H205.647L205.747 36.2988H250.006L249.901 37.0445Z" fill="#253343"/>
        <path d="M116.749 52.0509H0L0.525713 46.7031H117.275L116.749 52.0509Z" fill="#253343"/>
        <path d="M116.749 28.6954H0L0.525713 23.3477H117.275L116.749 28.6954Z" fill="#253343"/>
        <path d="M116.749 5.34774H0L0.525713 0H117.275L116.749 5.34774Z" fill="#253343"/>
        <path d="M249.439 123.068H126.685L127.217 117.721H249.965L249.439 123.068Z" fill="#253343"/>
        <path d="M249.439 99.713H126.685L127.217 94.3652H249.965L249.439 99.713Z" fill="#253343"/>
        <path d="M249.439 76.3653H126.685L127.217 71.0176H249.965L249.439 76.3653Z" fill="#253343"/>
    </g>
    <defs>
        <clipPath id="clip0_9192_18268">
            <rect width="250" height="124" fill="white"/>
        </clipPath>
    </defs>
</svg>
