<svg width="22" height="22" viewBox="0 0 22 22" fill="none" xmlns="http://www.w3.org/2000/svg">
  <path d="M11 0C4.9346 0 0 4.9346 0 11C0 17.0654 4.9346 22 11 22C17.0654 22 22 17.0654 22 11C22 4.9346 17.0654 0 11 0ZM2.2 11C2.2 10.0111 2.3716 9.0618 2.6741 8.1741L4.4 9.9L6.6 12.1V14.3L8.8 16.5L9.9 17.6V19.7241C5.5671 19.1796 2.2 15.4792 2.2 11ZM17.963 16.3603C17.2447 15.7817 16.1557 15.4 15.4 15.4V14.3C15.4 13.0856 14.4144 12.1 13.2 12.1H8.8V9.9V8.8C10.0144 8.8 11 7.8144 11 6.6V5.5H12.1C13.3144 5.5 14.3 4.5144 14.3 3.3V2.8479C17.5208 4.1558 19.8 7.315 19.8 11C19.8 13.0185 19.1103 14.8742 17.963 16.3603Z" fill="#00A09C"></path>
</svg>