<svg width="283" height="61" viewBox="0 0 283 61" fill="none" xmlns="http://www.w3.org/2000/svg">
  <path d="M279.966 15.0984C277.888 13.7057 275.485 10.5765 273.063 13.7961C268.546 19.9277 264.39 17.9743 259.926 14.0493C256.764 11.2458 253.891 12.0597 251.072 14.6643C248.253 17.2689 245.65 19.4937 242.958 21.8993C242.416 22.3876 241.819 23.0388 240.97 22.4419C240.863 22.3703 240.771 22.2781 240.699 22.1706C240.626 22.0685 240.576 21.9509 240.555 21.8269C240.527 21.6957 240.527 21.5602 240.555 21.429C240.59 21.3065 240.645 21.1904 240.717 21.0853C243.554 17.2508 240.121 16.4911 237.971 14.8271C235.079 12.6023 232.82 12.747 229.929 15.1527C226.062 18.3541 221.671 20.8321 217.551 23.7442C215.093 25.5529 214.027 25.2816 214.117 21.9354C214.316 16.5092 212.599 12.53 207.377 10.0158C201.721 7.24846 199.227 7.53788 196.264 13.145C193.805 17.7939 192.792 23.0725 193.354 28.3022C193.393 29.1329 193.622 29.9436 194.023 30.6717C194.428 31.402 195.005 32.0228 195.704 32.4804C198.288 34.0179 197.312 35.2478 195.975 36.9299C193.31 40.1279 190.277 42.9996 186.939 45.4853C183.325 48.2888 179.838 51.0924 176.404 54.0226C175.302 54.9812 173.892 56.2292 175.374 57.9475C177.94 60.8777 186.217 62.1257 189.288 59.7562C196.824 54.113 204.504 48.5601 209.455 40.1495C209.695 39.6274 210.062 39.1736 210.521 38.8291C210.978 38.4882 211.512 38.2646 212.075 38.178C217.147 37.184 221.954 35.1385 226.188 32.1729C227.508 31.3409 228.14 31.1239 229.568 32.6794C235.278 38.7025 238.35 38.7206 245.018 33.5114C247.674 31.4313 250.168 29.2247 252.824 27.1446C253.692 26.4573 254.306 25.3359 256.439 25.6072C251.559 33.3486 259.005 33.9455 262.691 37.0023C263.378 37.563 264.209 37.9609 264.95 38.4854C265.289 38.7902 265.687 39.0227 266.118 39.1689C266.55 39.315 267.007 39.3717 267.462 39.3355C267.914 39.3068 268.357 39.188 268.763 38.9862C269.17 38.7843 269.532 38.5034 269.829 38.1599C274.998 33.2207 279.197 27.3556 282.207 20.8683C283.58 17.8296 281.936 16.4188 279.966 15.0984ZM203.383 18.4084V18.6797C203.164 21.6121 202.649 24.5147 201.848 27.3436C201.795 27.5746 201.703 27.7949 201.576 27.9947C201.424 28.1603 201.216 28.2632 200.992 28.2833C200.768 28.3033 200.545 28.2391 200.366 28.1033C199.119 27.1989 199.697 24.2144 199.878 22.8941C200.025 21.4771 200.309 20.0777 200.727 18.7159C200.998 17.9381 201.504 15.5868 202.661 15.9305C203.817 16.2741 203.492 17.5583 203.383 18.4084Z" fill="white"></path>
  <path d="M72.9334 9.65501L72.4998 8.98573C70.7168 6.35687 68.0696 4.43679 65.0185 3.55951C61.7878 2.93762 58.4414 3.47564 55.5677 5.0789C54.037 5.76439 52.5782 6.60048 51.2127 7.57492C48.9901 9.29322 46.9119 10.2519 44.4363 7.99095C44.0425 7.65503 43.5699 7.42476 43.0629 7.32172C42.5607 7.22799 42.0425 7.27174 41.563 7.44835C33.5216 9.76354 28.1727 20.0191 31.3893 27.8147C32.2567 29.8948 31.9133 30.6545 30.1063 31.6131C25.9793 33.9922 21.4936 35.6843 16.8245 36.6233C9.1987 37.8532 4.916 32.7526 7.2471 25.1559C9.21679 18.7168 14.3126 13.5799 17.9267 8.08136C20.1856 4.66284 19.5532 3.17967 15.7403 1.75076C13.2827 0.828306 11.7105 2.23913 10.3191 3.84891C5.72229 9.14904 2.36401 15.4084 0.488741 22.1715C-0.355724 25.3391 -0.100492 28.6999 1.21271 31.7034C2.52591 34.7069 4.81923 37.175 7.71695 38.7034C18.0714 44.7446 28.5522 44.1296 39.0693 39.3003C41.7799 38.0522 44.2194 36.2616 46.8035 37.4915C60.1576 37.4011 70.5843 27.1817 73.8189 16.0399C74.1059 14.9719 74.1673 13.8557 73.9993 12.7626C73.8313 11.6695 73.4375 10.6234 72.8431 9.69117L72.9334 9.65501ZM38.238 24.1249C37.8623 23.2177 37.7932 22.2124 38.0411 21.2622C38.2891 20.312 38.8404 19.469 39.6114 18.8615C40.0812 18.4274 40.7679 18.9881 40.7679 19.3679C40.7187 20.3053 40.467 21.2208 40.0303 22.0514C39.5935 22.882 38.982 23.6079 38.238 24.1792V24.1249ZM51.2488 26.4944C51.9355 23.2387 53.0559 20.4532 52.7306 17.4507C52.6592 17.0639 52.7226 16.6644 52.91 16.3187C53.0975 15.9731 53.3977 15.7022 53.7606 15.5515C57.1627 13.7103 60.7482 12.2311 64.4584 11.1381C60.9888 17.939 57.6819 23.2567 51.2488 26.5487V26.4944Z" fill="white"></path>
  <path d="M94.1456 21.3211C88.7269 30.281 81.9406 38.3369 74.0331 45.1965C70.6133 48.0653 66.9423 50.62 63.0644 52.8294C60.5851 54.4516 57.7652 55.4791 54.8242 55.8319C51.9398 55.8329 49.1119 55.0313 46.6563 53.5167C44.5963 52.3953 44.5963 51.3462 46.1865 50.0439C47.4936 49.0209 48.8704 48.0901 50.3066 47.2584C64.0139 38.8818 76.028 28.0037 85.7248 15.1895C87.315 13.1094 88.598 9.92602 91.9049 10.957C93.746 11.4018 95.516 12.1019 97.1635 13.037C97.9978 13.58 98.7063 14.2954 99.2415 15.1352C99.9282 16.2566 100.145 17.577 100.868 18.7527C103.199 16.5098 103.958 13.3264 105.693 10.9389C106.488 9.7813 106.921 7.66505 109.054 8.71412C110.861 9.58232 113.047 10.2335 112.867 12.9647C112.418 21.0329 109.44 28.7542 104.356 35.0314C102.35 37.4912 99.7294 36.0804 97.5248 34.7781C95.3202 33.4758 93.1338 32.8428 94.0192 29.9849C94.8551 27.1655 94.9174 24.1729 94.1999 21.3211H94.1456Z" fill="white"></path>
  <path d="M161.281 35.2848C166.188 31.5608 170.46 27.0651 173.93 21.9725C177.725 16.3473 179.93 9.99862 182.532 3.79463C183.164 2.27529 183.399 -0.763399 186.146 0.177146C188.893 1.11769 191.712 2.32959 191.459 5.98325C190.429 21.1948 184.61 33.9825 172.611 43.6593C167.298 47.946 162.13 47.6205 156.528 44.6361C156.237 44.5238 155.972 44.3512 155.751 44.1296C155.514 43.9112 155.334 43.6379 155.227 43.3338C155.127 43.0311 155.09 42.7108 155.119 42.3932C155.143 42.0789 155.242 41.775 155.408 41.5069L161.281 35.2848Z" fill="white"></path>
  <path d="M131.155 19.0605C130.639 28.144 127.131 36.8006 121.18 43.6775C119.838 45.5578 118.181 47.1917 116.283 48.5068C115.323 48.8946 114.288 49.0602 113.256 48.9913C112.223 48.9224 111.219 48.6207 110.32 48.1089C102.206 44.5818 101.953 43.9488 107.392 36.8224C113.572 28.7011 119.427 20.399 122.842 10.5413C123.511 8.73259 124.342 6.00136 127.107 6.27267C128.034 6.42422 128.876 6.90379 129.479 7.6241C130.083 8.3444 130.408 9.25763 130.396 10.1977C130.613 12.549 131.119 14.8461 131.191 17.2336C131.173 17.9391 131.173 18.4455 131.155 19.0605Z" fill="white"></path>
  <path d="M144.114 47.0956C141.699 48.1394 139.129 48.7809 136.507 48.9948C134.49 49.119 132.465 49.0159 130.471 48.6873C129.062 48.4883 126.857 48.1628 126.459 46.4806C125.791 43.8218 129.658 42.5918 131.881 41.1629C143.428 33.4034 154.234 24.8843 162.058 13.0913C162.998 11.6624 163.865 10.3058 166.124 11.4634C166.606 11.6334 167.05 11.8974 167.43 12.2401C167.809 12.5827 168.117 12.9974 168.335 13.4599C168.554 13.9225 168.679 14.4238 168.702 14.9348C168.726 15.4459 168.648 15.9567 168.473 16.4375C166.961 23.292 163.867 29.6971 159.438 35.1398C156.217 38.7705 152.577 42.0066 148.596 44.7804C147.177 45.6889 145.676 46.4639 144.114 47.0956Z" fill="white"></path>
  <path d="M90.2621 58.5993C87.3889 57.0438 84.082 55.3979 80.9016 53.4625C79.6728 52.7028 80.2329 51.3643 81.0641 50.4238C83.349 47.8055 85.996 45.5276 88.9249 43.6591C91.8523 41.8503 93.8401 44.6177 96.0447 45.8296C97.8517 46.8787 97.4903 48.6693 96.7674 50.2791C95.8097 52.3772 94.8339 54.4573 93.7678 56.5554C93.4601 57.2112 92.9627 57.7594 92.3401 58.129C91.7162 58.506 90.9873 58.671 90.2621 58.5993Z" fill="white"></path>
</svg>