<svg width="14" height="13" viewBox="0 0 14 13" fill="none" xmlns="http://www.w3.org/2000/svg">
<mask id="mask0" mask-type="alpha" maskUnits="userSpaceOnUse" x="0" y="0" width="14" height="13">
<rect width="13.7056" height="12.492" rx="2" fill="#C4C4C4"/>
</mask>
<g mask="url(#mask0)">
<path d="M12.0164 -0.467712H1.39917C-0.636322 -0.467712 -2.29224 1.1882 -2.29224 3.22369V9.16318C-2.29224 11.1987 -0.636322 12.8546 1.39917 12.8546H1.94698H3.17456C3.27467 12.9815 3.42725 13.0555 3.58875 13.0555C3.75024 13.0555 3.90295 12.9815 4.00293 12.8546H5.34312H12.0164C14.0518 12.8546 15.7078 11.1987 15.7078 9.16318V3.22369C15.7078 1.1882 14.0518 -0.467712 12.0164 -0.467712Z" fill="#6787F5"/>
<path d="M12.0164 -0.467712H6.70776V12.8546H12.0164C14.0518 12.8546 15.7078 11.1987 15.7078 9.16318V3.22369C15.7078 1.1882 14.0518 -0.467712 12.0164 -0.467712Z" fill="#6787F5"/>
<path d="M15.7078 3.86543H11.2738L14.5744 0.564865C13.9104 -0.0741272 13.0086 -0.467712 12.0164 -0.467712H11.1324L9.03659 1.62807V-0.467712H4.37907V1.62807L2.28329 -0.467712H1.39917C0.406967 -0.467712 -0.494873 -0.0741272 -1.15886 0.564865L2.14171 3.86543H-2.29224V8.52295H2.14171L-1.03499 11.6995L-1.15817 11.8227C-0.494186 12.4614 0.407379 12.8546 1.39917 12.8546H1.94698L2.09584 13.0434L4.32249 10.8166L4.28638 12.8546H9.03645V10.7661L11.1181 12.8546H12.0164C13.0039 12.8546 13.902 12.4648 14.565 11.8311L14.4409 11.7064L11.2681 8.52295H15.7078V3.86543Z" fill="white"/>
<path d="M15.7078 3.86543H11.2738L14.5744 0.564865C13.9104 -0.0741272 13.0086 -0.467712 12.0164 -0.467712H11.1324L9.03659 1.62807V-0.467712H6.70776V12.8546H9.03645V10.7661L11.1181 12.8546H12.0164C13.0039 12.8546 13.902 12.4648 14.565 11.8311L14.4409 11.7064L11.2681 8.52295H15.7078V3.86543Z" fill="#C7D3ED"/>
<path d="M7.98177 4.92012V-0.467712H5.43376V4.92012H-2.29224V7.46826H5.43376L5.34312 12.8546H7.98177V7.46826H15.7078V4.92012H7.98177Z" fill="#FF4B55"/>
<path d="M7.98177 4.92012V-0.467712H6.70776V12.8546H7.98177V7.46826H15.7078V4.92012H7.98177Z" fill="#E62C36"/>
<path d="M4.73051 4.21686V3.47116L0.834763 -0.424591C0.435272 -0.363068 0.0566559 -0.237137 -0.2901 -0.0579224L3.98482 4.21686H4.73051Z" fill="#FF4B55"/>
<path d="M13.7057 -0.0579224C13.3589 -0.237137 12.9803 -0.363068 12.5808 -0.424591L8.68506 3.47116V4.21686H9.43076L13.7057 -0.0579224Z" fill="#E52C36"/>
<path d="M-0.289185 12.4453C0.0577088 12.6244 0.436325 12.7502 0.835953 12.8117L4.73047 8.91708V8.17139H3.98477L-0.289185 12.4453Z" fill="#FF4B55"/>
<path d="M8.68506 8.17139V8.91928L12.5663 12.8137C12.9666 12.7535 13.3461 12.6291 13.6939 12.451L9.4287 8.17139H8.68506Z" fill="#E52C36"/>
</g>
</svg>
