<svg width="24" height="24" viewBox="0 0 24 24" fill="none" xmlns="http://www.w3.org/2000/svg">
  <mask id="mask0" mask-type="alpha" maskUnits="userSpaceOnUse" x="0" y="0" width="24" height="24">
    <rect y="0.020752" width="24" height="23.9584" fill="#C4C4C4"></rect>
  </mask>
  <g mask="url(#mask0)">
    <path d="M20 13.9966H4C2.89543 13.9966 2 14.8905 2 15.9931V19.9862C2 21.0888 2.89543 21.9827 4 21.9827H20C21.1046 21.9827 22 21.0888 22 19.9862V15.9931C22 14.8905 21.1046 13.9966 20 13.9966Z" stroke="#00A09C" stroke-width="2" stroke-linecap="round" stroke-linejoin="round"></path>
    <path d="M6 17.9897H6.01" stroke="#00A09C" stroke-width="2" stroke-linecap="round" stroke-linejoin="round"></path>
    <path d="M20 2.01733H4C2.89543 2.01733 2 2.91121 2 4.01387V8.00694C2 9.10959 2.89543 10.0035 4 10.0035H20C21.1046 10.0035 22 9.10959 22 8.00694V4.01387C22 2.91121 21.1046 2.01733 20 2.01733Z" stroke="#00A09C" stroke-width="2" stroke-linecap="round" stroke-linejoin="round"></path>
    <path d="M6 6.01025H6.01" stroke="#00A09C" stroke-width="2" stroke-linecap="round" stroke-linejoin="round"></path>
  </g>
</svg>