<svg width="24" height="24" viewBox="0 0 24 24" fill="none" xmlns="http://www.w3.org/2000/svg">
  <mask id="mask0" mask-type="alpha" maskUnits="userSpaceOnUse" x="0" y="0" width="24" height="24">
  <rect width="24" height="24" fill="#C4C4C4"></rect>
  </mask>
  <g mask="url(#mask0)">
  <path d="M12 2C6.486 2 2 6.486 2 12V12.714V16V16.143C2 17.167 2.897 18 4 18H5C5.553 18 6 17.552 6 17V11.857C6 11.305 5.553 10.857 5 10.857C4.5209 10.857 4.15041 10.4306 4.2721 9.9672C5.1725 6.53854 8.2922 4 12 4C15.7078 4 18.8275 6.53854 19.7279 9.9672C19.8496 10.4306 19.4791 10.857 19 10.857C18.447 10.857 18 11.305 18 11.857V16V17V18C18 19.103 17.103 20 16 20H14.5C14.2239 20 14 19.7761 14 19.5C14 19.2239 13.7761 19 13.5 19H11C10.4477 19 10 19.4477 10 20V21C10 21.5523 10.4477 22 11 22H12H14H16C17.8645 22 19.4347 20.7185 19.8761 18.9898C20.0128 18.4547 20.4722 18.0219 20.9637 17.7699C21.581 17.4534 22 16.8428 22 16.143V16V12.714V12C22 6.486 17.514 2 12 2Z" fill="#02A4A6"></path>
  </g>
</svg>