<svg width="32" height="32" viewBox="0 0 32 32" fill="none" xmlns="http://www.w3.org/2000/svg">
    <path d="M18.6666 2.66699H7.99992C7.29267 2.66699 6.6144 2.94794 6.1143 3.44804C5.6142 3.94814 5.33325 4.62641 5.33325 5.33366V26.667C5.33325 27.3742 5.6142 28.0525 6.1143 28.5526C6.6144 29.0527 7.29267 29.3337 7.99992 29.3337H23.9999C24.7072 29.3337 25.3854 29.0527 25.8855 28.5526C26.3856 28.0525 26.6666 27.3742 26.6666 26.667V10.667L18.6666 2.66699Z" fill="url(#paint0_linear_6806_8911)" stroke="#00BABA" stroke-width="3" stroke-linecap="round" stroke-linejoin="round"></path>
    <path d="M18.6667 2.66699V10.667H26.6667" stroke="#00BABA" stroke-width="3" stroke-linecap="round" stroke-linejoin="round"></path>
    <path d="M21.3334 17.333H10.6667" stroke="#344456" stroke-width="3" stroke-linecap="round" stroke-linejoin="round"></path>
    <path d="M21.3334 22.667H10.6667" stroke="#344456" stroke-width="3" stroke-linecap="round" stroke-linejoin="round"></path>
    <path d="M13.3334 12H12.0001H10.6667" stroke="#344456" stroke-width="3" stroke-linecap="round" stroke-linejoin="round"></path>
    <defs>
        <linearGradient id="paint0_linear_6806_8911" x1="15.9999" y1="2.66699" x2="15.9999" y2="29.3337" gradientUnits="userSpaceOnUse">
            <stop stop-color="#D0D9E8"></stop>
            <stop offset="1" stop-color="#C4C4C4" stop-opacity="0"></stop>
        </linearGradient>
    </defs>
</svg>