<svg  width="35" height="35" viewBox="0 0 38 35" fill="none" xmlns="http://www.w3.org/2000/svg">
  <path id="productsCloudComputingRectTop" d="M30.84 2H6.84C4.16694 2 2 4.16694 2 6.84V9.57C2 12.2431 4.16694 14.41 6.84 14.41H30.84C33.5131 14.41 35.68 12.2431 35.68 9.57V6.84C35.68 4.16694 33.5131 2 30.84 2Z" stroke="#7A90AA" stroke-width="3" stroke-miterlimit="10" stroke-linecap="round"></path>
  <path id="productsCloudComputingDotTopRight" opacity="0.7" d="M29.2598 10.1203C30.3202 10.1203 31.1798 9.26066 31.1798 8.20027C31.1798 7.13989 30.3202 6.28027 29.2598 6.28027C28.1995 6.28027 27.3398 7.13989 27.3398 8.20027C27.3398 9.26066 28.1995 10.1203 29.2598 10.1203Z" fill="#7A90AA"></path>
  <path id="productsCloudComputingDotTopLeft" opacity="0.7" d="M23.3106 10.1203C24.371 10.1203 25.2306 9.26066 25.2306 8.20027C25.2306 7.13989 24.371 6.28027 23.3106 6.28027C22.2502 6.28027 21.3906 7.13989 21.3906 8.20027C21.3906 9.26066 22.2502 10.1203 23.3106 10.1203Z" fill="#7A90AA"></path>
  <path id="productsCloudComputingRectBottom" d="M30.84 20.2603H6.84C4.16694 20.2603 2 22.4272 2 25.1003V27.8303C2 30.5033 4.16694 32.6703 6.84 32.6703H30.84C33.5131 32.6703 35.68 30.5033 35.68 27.8303V25.1003C35.68 22.4272 33.5131 20.2603 30.84 20.2603Z" stroke="#7A90AA" stroke-width="3" stroke-miterlimit="10"></path>
  <path id="productsCloudComputingDotBottomRight" d="M29.2598 28.3903C30.3202 28.3903 31.1798 27.5307 31.1798 26.4703C31.1798 25.4099 30.3202 24.5503 29.2598 24.5503C28.1995 24.5503 27.3398 25.4099 27.3398 26.4703C27.3398 27.5307 28.1995 28.3903 29.2598 28.3903Z" fill="#7A90AA"></path>
  <path id="productsCloudComputingDotBottomLeft" opacity="0.7" d="M23.3106 28.3903C24.371 28.3903 25.2306 27.5307 25.2306 26.4703C25.2306 25.4099 24.371 24.5503 23.3106 24.5503C22.2502 24.5503 21.3906 25.4099 21.3906 26.4703C21.3906 27.5307 22.2502 28.3903 23.3106 28.3903Z" fill="#7A90AA"></path>
</svg>